<?xml version="1.0" encoding="UTF-8" standalone="no"?>
<!-- Created with Inkscape (http://www.inkscape.org/) -->

<svg
   xmlns:dc="http://purl.org/dc/elements/1.1/"
   xmlns:cc="http://creativecommons.org/ns#"
   xmlns:rdf="http://www.w3.org/1999/02/22-rdf-syntax-ns#"
   xmlns:svg="http://www.w3.org/2000/svg"
   xmlns="http://www.w3.org/2000/svg"
   xmlns:sodipodi="http://sodipodi.sourceforge.net/DTD/sodipodi-0.dtd"
   xmlns:inkscape="http://www.inkscape.org/namespaces/inkscape"
   width="218.37219mm"
   height="37.761742mm"
   viewBox="0 0 773.75974 133.80145"
   id="svg2"
   version="1.1"
   inkscape:version="0.91 r13725"
   sodipodi:docname="drawing.svg">
  <defs
     id="defs4" />
  <sodipodi:namedview
     id="base"
     pagecolor="#ffffff"
     bordercolor="#666666"
     borderopacity="1.0"
     inkscape:pageopacity="0.0"
     inkscape:pageshadow="2"
     inkscape:zoom="0.7"
     inkscape:cx="280.86815"
     inkscape:cy="-49.97091"
     inkscape:document-units="px"
     inkscape:current-layer="layer1"
     showgrid="false"
     fit-margin-top="0"
     fit-margin-left="0"
     fit-margin-right="0"
     fit-margin-bottom="0"
     inkscape:window-width="1280"
     inkscape:window-height="687"
     inkscape:window-x="0"
     inkscape:window-y="1"
     inkscape:window-maximized="1" />
  <metadata
     id="metadata7">
    <rdf:RDF>
      <cc:Work
         rdf:about="">
        <dc:format>image/svg+xml</dc:format>
        <dc:type
           rdf:resource="http://purl.org/dc/dcmitype/StillImage" />
        <dc:title></dc:title>
      </cc:Work>
    </rdf:RDF>
  </metadata>
  <g
     inkscape:label="Capa 1"
     inkscape:groupmode="layer"
     id="layer1"
     transform="translate(-190.78408,-355.91956)">
    <flowRoot
       xml:space="preserve"
       id="flowRoot4136"
       style="font-style:normal;font-weight:normal;font-size:180px;line-height:125%;font-family:sans-serif;letter-spacing:0px;word-spacing:0px;fill:#000000;fill-opacity:1;stroke:none;stroke-width:1px;stroke-linecap:butt;stroke-linejoin:miter;stroke-opacity:1"><flowRegion
         id="flowRegion4138"><rect
           id="rect4140"
           width="728.57141"
           height="434.28571"
           x="51.42857"
           y="192.3622"
           style="font-size:180px" /></flowRegion><flowPara
         id="flowPara4142"></flowPara></flowRoot>    <g
       id="g4440"
       transform="translate(50,-57.142857)">
      <g
         style="fill:#005544;fill-opacity:0.12878789"
         transform="translate(14.285714,144.28571)"
         id="g4421">
        <flowRoot
           xml:space="preserve"
           id="flowRoot4146"
           style="font-style:normal;font-weight:normal;font-size:5px;line-height:125%;font-family:sans-serif;letter-spacing:0px;word-spacing:0px;fill:#005544;fill-opacity:0.12878789;stroke:none;stroke-width:1px;stroke-linecap:butt;stroke-linejoin:miter;stroke-opacity:1"
           transform="matrix(2.0592982,0,0,2.0592982,202.50707,-634.30175)"><flowRegion
             id="flowRegion4148"><rect
               id="rect4150"
               width="412.85715"
               height="317.14285"
               x="41.42857"
               y="419.50507"
               style="fill:#005544;fill-opacity:0.12878789" /></flowRegion><flowPara
             id="flowPara4152"
             style="font-style:italic;font-variant:normal;font-weight:normal;font-stretch:normal;font-size:70px;font-family:'Champion Shipmate';-inkscape-font-specification:'Champion Shipmate Italic';fill:#005544;fill-opacity:0.12878789">RollWeb Design</flowPara></flowRoot>        <path
           style="fill:#005544;fill-opacity:0.12878789"
           d="m 166.74194,402.13838 c -1.43166,-0.90901 -5.15621,-6.89802 -10.76055,-17.30255 -2.55772,-4.74845 -6.44168,-11.36752 -8.63103,-14.70902 -2.18934,-3.34151 -5.74962,-9.45497 -7.91171,-13.58545 -2.1621,-4.13049 -5.22477,-9.58882 -6.80595,-12.12958 -4.35715,-7.00149 -4.36073,-7.80045 -0.0635,-14.19261 3.51107,-5.22266 13.50264,-22.07377 19.56554,-32.99798 5.73075,-10.32567 13.52817,-23.32756 14.27743,-23.80705 0.41346,-0.26461 17.41122,-0.41223 37.7728,-0.32806 l 37.02107,0.15304 9.25779,15.98804 c 5.09178,8.79344 13.3061,22.88788 18.25405,31.32095 4.94794,8.43307 9.11797,15.96953 9.26673,16.7477 0.17473,0.91407 -0.89663,3.34701 -3.0268,6.87366 -1.81351,3.0023 -5.97413,10.1429 -9.24585,15.86797 -3.27172,5.72501 -9.04,15.73316 -12.81841,22.2403 -3.7784,6.50715 -7.91108,13.62984 -9.18372,15.8282 l -2.3139,3.99701 -24.38257,0 c -13.41041,0 -29.96872,0.15963 -36.79623,0.35475 -8.20215,0.23438 -12.7738,0.12611 -13.47519,-0.31932 z m 68.95968,-4.08789 c 0.64091,-0.64093 -2.02977,-5.65888 -3.99383,-7.50404 l -1.52824,-1.43572 -9.12451,1.7111 c -5.01847,0.94113 -14.83896,2.71523 -21.82331,3.94247 -6.98435,1.22724 -13.02785,2.44515 -13.42998,2.70653 -0.40214,0.26137 7.75851,0.64086 18.13477,0.84333 23.01566,0.44914 31.11954,0.38193 31.7651,-0.26367 z m -51.91007,-3.02661 c 9.79273,-1.74129 41.39687,-7.70241 42.36838,-7.99148 0.43968,-0.13084 0.78987,-0.46275 0.7782,-0.73756 -0.0116,-0.27486 -3.75513,-2.65811 -8.31882,-5.29614 -4.5637,-2.63803 -11.67685,-6.83056 -15.80699,-9.31683 -15.04703,-9.05782 -34.964,-20.33114 -36.40709,-20.60703 -1.83791,-0.35129 -1.82818,-1.21483 -0.21472,19.05197 1.23456,15.50741 2.36209,25.36296 3.02421,26.43429 0.40506,0.65545 4.92827,0.17843 14.57683,-1.53722 z M 250.339,378.92025 c 5.53713,-9.58485 11.17545,-19.27944 12.52961,-21.54348 1.35416,-2.26411 2.46211,-4.36487 2.46211,-4.66833 0,-1.11462 -1.92788,0.57922 -4.65157,4.08681 -1.53741,1.97983 -7.83818,9.17089 -14.00171,15.98008 -6.16353,6.80913 -11.54948,13.029 -11.96879,13.82181 -0.66241,1.25251 -0.44482,1.98457 1.65975,5.58355 1.33216,2.27811 2.75533,4.14756 3.16261,4.15428 0.40726,0.007 5.27087,-7.82987 10.80799,-17.41472 z m -85.41338,6.99408 c 0,-2.22068 -0.40704,-7.18498 -0.90455,-11.03177 -0.49749,-3.84673 -1.2653,-11.26667 -1.70624,-16.48882 -0.50072,-5.92998 -1.11216,-9.80517 -1.62863,-10.32165 -0.83565,-0.8356 -15.63641,-5.85911 -21.80974,-7.40235 -5.58248,-1.3955 -5.89375,-2.28917 6.2911,18.06141 4.14485,6.92251 8.16345,13.82936 8.93022,15.34855 3.29097,6.52019 9.15894,15.87232 9.95907,15.87232 0.64028,0 0.86877,-1.06193 0.86877,-4.03769 z m 65.00147,-2.68095 c 0.32654,-0.85095 -0.14109,-20.10251 -1.47086,-60.55214 -0.22766,-6.92539 -0.62265,-12.9293 -0.87773,-13.34205 -0.31841,-0.51519 -1.94145,0.24264 -5.17801,2.41772 -2.59283,1.74251 -10.18216,6.40745 -16.86517,10.3666 -11.84954,7.01979 -17.35519,10.41662 -20.95735,12.92994 -0.97441,0.67988 -3.42059,2.12648 -5.43594,3.21476 -5.87948,3.17472 -12.93736,7.64613 -12.93736,8.19625 0,0.2789 7.69825,5.09904 17.10723,10.71143 9.40899,5.61246 23.43851,13.97985 31.17674,18.59426 7.73823,4.61441 14.29437,8.39802 14.56921,8.408 0.27485,0.0102 0.666,-0.41518 0.86924,-0.94477 z m 19.69105,-17.90299 c 14.5345,-16.24082 22.74733,-25.94174 22.74733,-26.86898 0,-0.68449 -23.2619,-17.3548 -36.44427,-26.11735 -5.49702,-3.65398 -5.38493,-3.82294 -4.92212,7.42032 0.2208,5.364 0.72082,21.40803 1.11116,35.6534 0.39034,14.24537 0.85559,26.33236 1.03388,26.85996 0.35671,1.05554 0.43094,0.97918 16.47402,-16.94735 z m -88.13412,-22.18614 c 0.25906,-0.41914 0.68269,-4.80787 0.94141,-9.75273 0.25872,-4.94479 0.91511,-14.31463 1.45865,-20.82178 0.54354,-6.50714 1.16582,-16.14795 1.38284,-21.42401 0.3849,-9.35734 0.36593,-9.55737 -0.77276,-8.14873 -2.79033,3.45188 -30.44273,52.67378 -29.89514,53.21405 0.97039,0.95743 22.16931,7.61838 24.37327,7.65835 1.12239,0.0205 2.25267,-0.30594 2.51173,-0.72515 z m 9.11632,-2.86276 c 10.21276,-6.25095 34.70438,-21.07401 44.36794,-26.85274 5.53987,-3.31285 10.07249,-6.39107 10.07249,-6.84059 0,-0.88453 -53.47453,-28.55262 -55.18399,-28.55262 -0.67342,0 -1.15402,0.7275 -1.37305,2.07845 -0.4008,2.47213 -1.99862,26.35119 -2.96196,44.26595 -0.37767,7.02318 -0.91523,13.99283 -1.19458,15.48816 -0.81743,4.37549 -0.26001,4.4122 6.27315,0.41339 z m 100.48608,-8.21883 c 0,-0.71524 -29.03119,-50.58398 -30.12409,-51.74612 -0.94153,-1.00116 -1.22647,-1.06199 -1.49778,-0.31976 -3.58191,9.79911 -8.49288,25.25068 -8.23719,25.917 0.33372,0.86963 38.4017,26.48118 39.36061,26.48118 0.27415,0 0.49845,-0.14953 0.49845,-0.3323 z m -39.77391,-35.6905 c 1.39284,-3.92974 3.33692,-9.83017 4.32018,-13.11202 1.51224,-5.04751 1.64692,-6.0567 0.87397,-6.54885 -1.28979,-0.82124 -61.66843,-0.4639 -61.66843,0.36496 0,0.87753 52.15957,27.12483 53.14895,26.74514 0.43608,-0.1673 1.93248,-3.51949 3.32533,-7.44923 z"
           id="path4251"
           inkscape:connector-curvature="0"
           sodipodi:nodetypes="csssssssscssssssscssccscsssscsccsscscsscssssscsssscssssscscssscsssccssssssscsssssccsssssssssssssssssscs" />
      </g>
      <g
         style="fill:#55ffde;fill-opacity:1"
         transform="translate(11.428571,140)"
         id="g4428">
        <flowRoot
           transform="matrix(2.0592982,0,0,2.0592982,202.50707,-634.30175)"
           style="font-style:normal;font-weight:normal;font-size:5px;line-height:125%;font-family:sans-serif;letter-spacing:0px;word-spacing:0px;fill:#55ffde;fill-opacity:1;stroke:none;stroke-width:1px;stroke-linecap:butt;stroke-linejoin:miter;stroke-opacity:1"
           id="flowRoot4430"
           xml:space="preserve"><flowRegion
             id="flowRegion4432"><rect
               style="fill:#55ffde;fill-opacity:1"
               y="419.50507"
               x="41.42857"
               height="317.14285"
               width="412.85715"
               id="rect4434" /></flowRegion><flowPara
             style="font-style:italic;font-variant:normal;font-weight:normal;font-stretch:normal;font-size:70px;font-family:'Champion Shipmate';-inkscape-font-specification:'Champion Shipmate Italic';fill:#55ffde;fill-opacity:1"
             id="flowPara4436">RollWeb Design</flowPara></flowRoot>        <path
           sodipodi:nodetypes="csssssssscssssssscssccscsssscsccsscscsscssssscsssscssssscscssscsssccssssssscsssssccsssssssssssssssssscs"
           inkscape:connector-curvature="0"
           id="path4438"
           d="m 166.74194,402.13838 c -1.43166,-0.90901 -5.15621,-6.89802 -10.76055,-17.30255 -2.55772,-4.74845 -6.44168,-11.36752 -8.63103,-14.70902 -2.18934,-3.34151 -5.74962,-9.45497 -7.91171,-13.58545 -2.1621,-4.13049 -5.22477,-9.58882 -6.80595,-12.12958 -4.35715,-7.00149 -4.36073,-7.80045 -0.0635,-14.19261 3.51107,-5.22266 13.50264,-22.07377 19.56554,-32.99798 5.73075,-10.32567 13.52817,-23.32756 14.27743,-23.80705 0.41346,-0.26461 17.41122,-0.41223 37.7728,-0.32806 l 37.02107,0.15304 9.25779,15.98804 c 5.09178,8.79344 13.3061,22.88788 18.25405,31.32095 4.94794,8.43307 9.11797,15.96953 9.26673,16.7477 0.17473,0.91407 -0.89663,3.34701 -3.0268,6.87366 -1.81351,3.0023 -5.97413,10.1429 -9.24585,15.86797 -3.27172,5.72501 -9.04,15.73316 -12.81841,22.2403 -3.7784,6.50715 -7.91108,13.62984 -9.18372,15.8282 l -2.3139,3.99701 -24.38257,0 c -13.41041,0 -29.96872,0.15963 -36.79623,0.35475 -8.20215,0.23438 -12.7738,0.12611 -13.47519,-0.31932 z m 68.95968,-4.08789 c 0.64091,-0.64093 -2.02977,-5.65888 -3.99383,-7.50404 l -1.52824,-1.43572 -9.12451,1.7111 c -5.01847,0.94113 -14.83896,2.71523 -21.82331,3.94247 -6.98435,1.22724 -13.02785,2.44515 -13.42998,2.70653 -0.40214,0.26137 7.75851,0.64086 18.13477,0.84333 23.01566,0.44914 31.11954,0.38193 31.7651,-0.26367 z m -51.91007,-3.02661 c 9.79273,-1.74129 41.39687,-7.70241 42.36838,-7.99148 0.43968,-0.13084 0.78987,-0.46275 0.7782,-0.73756 -0.0116,-0.27486 -3.75513,-2.65811 -8.31882,-5.29614 -4.5637,-2.63803 -11.67685,-6.83056 -15.80699,-9.31683 -15.04703,-9.05782 -34.964,-20.33114 -36.40709,-20.60703 -1.83791,-0.35129 -1.82818,-1.21483 -0.21472,19.05197 1.23456,15.50741 2.36209,25.36296 3.02421,26.43429 0.40506,0.65545 4.92827,0.17843 14.57683,-1.53722 z M 250.339,378.92025 c 5.53713,-9.58485 11.17545,-19.27944 12.52961,-21.54348 1.35416,-2.26411 2.46211,-4.36487 2.46211,-4.66833 0,-1.11462 -1.92788,0.57922 -4.65157,4.08681 -1.53741,1.97983 -7.83818,9.17089 -14.00171,15.98008 -6.16353,6.80913 -11.54948,13.029 -11.96879,13.82181 -0.66241,1.25251 -0.44482,1.98457 1.65975,5.58355 1.33216,2.27811 2.75533,4.14756 3.16261,4.15428 0.40726,0.007 5.27087,-7.82987 10.80799,-17.41472 z m -85.41338,6.99408 c 0,-2.22068 -0.40704,-7.18498 -0.90455,-11.03177 -0.49749,-3.84673 -1.2653,-11.26667 -1.70624,-16.48882 -0.50072,-5.92998 -1.11216,-9.80517 -1.62863,-10.32165 -0.83565,-0.8356 -15.63641,-5.85911 -21.80974,-7.40235 -5.58248,-1.3955 -5.89375,-2.28917 6.2911,18.06141 4.14485,6.92251 8.16345,13.82936 8.93022,15.34855 3.29097,6.52019 9.15894,15.87232 9.95907,15.87232 0.64028,0 0.86877,-1.06193 0.86877,-4.03769 z m 65.00147,-2.68095 c 0.32654,-0.85095 -0.14109,-20.10251 -1.47086,-60.55214 -0.22766,-6.92539 -0.62265,-12.9293 -0.87773,-13.34205 -0.31841,-0.51519 -1.94145,0.24264 -5.17801,2.41772 -2.59283,1.74251 -10.18216,6.40745 -16.86517,10.3666 -11.84954,7.01979 -17.35519,10.41662 -20.95735,12.92994 -0.97441,0.67988 -3.42059,2.12648 -5.43594,3.21476 -5.87948,3.17472 -12.93736,7.64613 -12.93736,8.19625 0,0.2789 7.69825,5.09904 17.10723,10.71143 9.40899,5.61246 23.43851,13.97985 31.17674,18.59426 7.73823,4.61441 14.29437,8.39802 14.56921,8.408 0.27485,0.0102 0.666,-0.41518 0.86924,-0.94477 z m 19.69105,-17.90299 c 14.5345,-16.24082 22.74733,-25.94174 22.74733,-26.86898 0,-0.68449 -23.2619,-17.3548 -36.44427,-26.11735 -5.49702,-3.65398 -5.38493,-3.82294 -4.92212,7.42032 0.2208,5.364 0.72082,21.40803 1.11116,35.6534 0.39034,14.24537 0.85559,26.33236 1.03388,26.85996 0.35671,1.05554 0.43094,0.97918 16.47402,-16.94735 z m -88.13412,-22.18614 c 0.25906,-0.41914 0.68269,-4.80787 0.94141,-9.75273 0.25872,-4.94479 0.91511,-14.31463 1.45865,-20.82178 0.54354,-6.50714 1.16582,-16.14795 1.38284,-21.42401 0.3849,-9.35734 0.36593,-9.55737 -0.77276,-8.14873 -2.79033,3.45188 -30.44273,52.67378 -29.89514,53.21405 0.97039,0.95743 22.16931,7.61838 24.37327,7.65835 1.12239,0.0205 2.25267,-0.30594 2.51173,-0.72515 z m 9.11632,-2.86276 c 10.21276,-6.25095 34.70438,-21.07401 44.36794,-26.85274 5.53987,-3.31285 10.07249,-6.39107 10.07249,-6.84059 0,-0.88453 -53.47453,-28.55262 -55.18399,-28.55262 -0.67342,0 -1.15402,0.7275 -1.37305,2.07845 -0.4008,2.47213 -1.99862,26.35119 -2.96196,44.26595 -0.37767,7.02318 -0.91523,13.99283 -1.19458,15.48816 -0.81743,4.37549 -0.26001,4.4122 6.27315,0.41339 z m 100.48608,-8.21883 c 0,-0.71524 -29.03119,-50.58398 -30.12409,-51.74612 -0.94153,-1.00116 -1.22647,-1.06199 -1.49778,-0.31976 -3.58191,9.79911 -8.49288,25.25068 -8.23719,25.917 0.33372,0.86963 38.4017,26.48118 39.36061,26.48118 0.27415,0 0.49845,-0.14953 0.49845,-0.3323 z m -39.77391,-35.6905 c 1.39284,-3.92974 3.33692,-9.83017 4.32018,-13.11202 1.51224,-5.04751 1.64692,-6.0567 0.87397,-6.54885 -1.28979,-0.82124 -61.66843,-0.4639 -61.66843,0.36496 0,0.87753 52.15957,27.12483 53.14895,26.74514 0.43608,-0.1673 1.93248,-3.51949 3.32533,-7.44923 z"
           style="fill:#55ffde;fill-opacity:1" />
      </g>
    </g>
  </g>
</svg>
